<svg width="12" height="12" viewBox="0 0 12 12" fill="none" xmlns="http://www.w3.org/2000/svg">
<g clip-path="url(#clip0)">
<path d="M7.91407 8.27978L7.18386 5.0239C7.17154 4.96815 7.12204 4.92871 7.06498 4.92871H5.99998H4.93502C4.87746 4.92871 4.82779 4.96888 4.81592 5.02508L4.08566 8.45435C4.07792 8.49067 4.08734 8.52898 4.11098 8.55747C4.12515 8.57413 5.5134 10.275 5.5134 11.8774C5.5134 11.9444 5.56783 11.9992 5.63512 11.9992C5.70228 11.9992 5.75685 11.9445 5.75685 11.8774V8.74712C5.75685 8.74173 5.75436 8.7367 5.75363 8.73172C5.75246 8.72289 5.7515 8.71429 5.74852 8.70627C5.74616 8.69962 5.74272 8.69414 5.73905 8.68861C5.73443 8.68051 5.72977 8.67272 5.72347 8.66583C5.72026 8.66226 5.71641 8.66008 5.71301 8.65678C5.70645 8.65134 5.70088 8.64446 5.69277 8.64043C5.47703 8.52459 5.34295 8.30356 5.34295 8.06323C5.34295 7.82286 5.47703 7.60182 5.693 7.48608C5.89161 7.37934 6.10948 7.37934 6.3081 7.48608H6.30832C6.52415 7.60182 6.65824 7.8229 6.65824 8.06323C6.65824 8.30356 6.52415 8.52459 6.30832 8.64043C6.28247 8.65447 6.26508 8.67679 6.25457 8.70215C6.25434 8.70292 6.25385 8.7036 6.25344 8.70432C6.249 8.71574 6.24719 8.7271 6.24651 8.73901C6.24601 8.74359 6.24416 8.74712 6.24416 8.75165V11.8779C6.24416 11.9449 6.29859 11.9996 6.36588 11.9996C6.43317 11.9996 6.48761 11.9449 6.48761 11.8779C6.48761 10.3536 7.88061 8.39748 7.89492 8.37796C7.91462 8.34898 7.92195 8.31356 7.91407 8.27978Z" fill="black"/>
<path d="M4.88956 4.59459H7.11086C7.17272 4.59459 7.22503 4.54813 7.23164 4.48649L7.71849 0.135356C7.72252 0.100804 7.71161 0.0664327 7.68806 0.0406204C7.66497 0.0148081 7.63223 0 7.59749 0H4.4027C4.3681 0 4.33495 0.0148081 4.3119 0.0406204C4.28867 0.066161 4.27776 0.100804 4.28147 0.135356L4.76833 4.48654C4.77535 4.54785 4.82761 4.59459 4.88956 4.59459Z" fill="black"/>
</g>
<defs>
<clipPath id="clip0">
<rect width="12" height="12" fill="white"/>
</clipPath>
</defs>
</svg>
